<svg xmlns="http://www.w3.org/2000/svg" width="1200" height="900" viewBox="0 0 1200 900"><rect width="1200" height="900" fill="#e6e9d5"/><g fill="#30372f" font-family="Arial,sans-serif"><rect x="220" y="110" width="760" height="680" rx="8" fill="#fbfcf7"/><text x="265" y="180" font-size="30">Shelf</text><text x="265" y="238" font-size="18" fill="#68715e">READING / 08 MIN</text><text x="310" y="320" font-size="40">A place between places</text><rect x="310" y="365" width="555" height="6" fill="#b7beb0"/><rect x="310" y="390" width="555" height="6" fill="#b7beb0"/><rect x="310" y="415" width="390" height="6" fill="#b7beb0"/><rect x="310" y="440" width="555" height="6" fill="#b7beb0"/><rect x="310" y="465" width="555" height="6" fill="#b7beb0"/><rect x="310" y="490" width="390" height="6" fill="#b7beb0"/><rect x="310" y="515" width="555" height="6" fill="#b7beb0"/><rect x="310" y="540" width="555" height="6" fill="#b7beb0"/><rect x="310" y="565" width="390" height="6" fill="#b7beb0"/><rect x="310" y="590" width="555" height="6" fill="#b7beb0"/><rect x="310" y="615" width="555" height="6" fill="#b7beb0"/><text x="310" y="710" font-size="17">Saved for a useful way to explain public space.</text></g></svg>