<svg viewBox="0 0 750 600" xmlns="http://www.w3.org/2000/svg" role="img" aria-label="Original diagram of a plywood stool"><ellipse cx="375" cy="496" rx="170" ry="20" fill="#d5d3ca" opacity=".35"/><g class="lower"><path d="M240 256 269 271 269 475 240 460Z" fill="#8c654b"/><path d="M269 271 321 245 321 448 269 475Z" fill="var(--finish,#b47757)"/><path d="M422 275 451 290 451 494 422 479Z" fill="#8c654b"/><path d="M451 290 505 261 505 465 451 494Z" fill="var(--finish,#b47757)"/></g><g class="upper"><path d="M211 243 367 163 546 251 391 332Z" fill="var(--finish,#b47757)"/><path d="M211 243 391 332 391 354 211 265Z" fill="#8d6248"/><path d="M391 332 546 251 546 273 391 354Z" fill="#a37b59"/><path d="M233 243 368 176 523 251" fill="none" stroke="#f1d2af" stroke-width="2" opacity=".6"/></g></svg>