<svg xmlns="http://www.w3.org/2000/svg" width="1600" height="1000"><defs><pattern id="grid" width="28" height="28" patternUnits="userSpaceOnUse"><circle cx="2" cy="2" r="1" fill="#ccdaf4"/></pattern></defs><rect width="1600" height="1000" fill="#fff"/><path d="M0 130H1600" stroke="#dde3ed"/><text x="80" y="90" font-family="Arial" font-size="47" fill="#171c27" font-weight="700" letter-spacing="-2">circa</text><text x="80" y="300" font-family="Arial" font-size="19" fill="#526b99" >A CLEARER PICTURE OF YOUR RELATIONSHIPS</text><text x="75" y="425" font-family="Arial" font-size="102" fill="#171c27" font-weight="700" letter-spacing="-6">People first.</text><text x="75" y="545" font-family="Arial" font-size="102" fill="#315be8" font-weight="700" letter-spacing="-6">Context always.</text><text x="83" y="625" font-family="Arial" font-size="26" fill="#526078" >People, companies, and opportunities.</text><text x="83" y="670" font-family="Arial" font-size="26" fill="#526078" >Connected to the details that matter.</text><rect x="82" y="728" width="295" height="65" rx="8" fill="#315be8"/><text x="112" y="770" font-family="Arial" font-size="22" fill="#fff" >Explore the workspace ↗</text><rect x="850" y="190" width="680" height="675" rx="14" fill="url(#grid)" stroke="#dce5f7"/><circle cx="1190" cy="535" r="220" fill="none" stroke="#d0ddf6"/><circle cx="1190" cy="535" r="290" fill="none" stroke="#d0ddf6"/><path d="M1005 355L1210 510L1410 355M1210 510L1010 745M1210 510L1420 745" fill="none" stroke="#93afed" stroke-width="3"/><rect x="875" y="260" width="245" height="110" rx="12" fill="#fff" stroke="#b9c9e8" stroke-width="2"/><text x="899" y="305" font-family="Arial" font-size="25" fill="#203352" font-weight="600">Mara Quinn</text><text x="899" y="340" font-family="Arial" font-size="17" fill="#5b6c88" >Operations lead</text><rect x="1260" y="260" width="245" height="110" rx="12" fill="#fff" stroke="#b9c9e8" stroke-width="2"/><text x="1284" y="305" font-family="Arial" font-size="25" fill="#203352" font-weight="600">Ivo Chen</text><text x="1284" y="340" font-family="Arial" font-size="17" fill="#5b6c88" >Design director</text><rect x="1040" y="455" width="315" height="125" rx="12" fill="#edf2ff" stroke="#315be8" stroke-width="3"/><text x="1064" y="500" font-family="Arial" font-size="25" fill="#203352" font-weight="600">Northline Studio</text><text x="1064" y="535" font-family="Arial" font-size="17" fill="#5b6c88" >2 people · 2 example deals</text><rect x="875" y="700" width="300" height="110" rx="12" fill="#fff" stroke="#b9c9e8" stroke-width="2"/><text x="899" y="745" font-family="Arial" font-size="25" fill="#203352" font-weight="600">Partnership</text><text x="899" y="780" font-family="Arial" font-size="17" fill="#5b6c88" >Discovery · Fictional deal</text><rect x="1260" y="700" width="245" height="110" rx="12" fill="#fff" stroke="#b9c9e8" stroke-width="2"/><text x="1284" y="745" font-family="Arial" font-size="25" fill="#203352" font-weight="600">Useful context</text><text x="1284" y="780" font-family="Arial" font-size="17" fill="#5b6c88" >Local record notes</text><text x="83" y="925" font-family="Arial" font-size="17" fill="#526078" >FICTIONAL RECORDS / LOCAL EDITS / NO EXTERNAL MESSAGING</text></svg>